<?xml version="1.0" encoding="utf-8"?>
<!DOCTYPE svg PUBLIC "-//W3C//DTD SVG 1.1//EN" "http://www.w3.org/Graphics/SVG/1.1/DTD/svg11.dtd">
<svg version="1.1" id="Layer_1" xmlns="http://www.w3.org/2000/svg" xmlns:xlink="http://www.w3.org/1999/xlink" x="0px" y="0px"
	 viewBox="0 0 1250.0708 1567.8364" enable-background="new 0 0 1250.0708 1567.8364" xml:space="preserve">
<g>
	<path fill="#9A6E4B" d="M1236.7267,595.7487c-0.312,21.8107-3.417,43.1176-11.2839,63.5947
		c-13.1833,34.3153-36.3956,58.3595-70.7793,72.3583c-44.4331,18.0903-89.7487,33.6714-134.8818,49.8091
		c-23.1616,8.2817-46.4557,16.0625-68.5055,27.4395c-28.0367,14.4661-41.8104,37.407-45.2979,67.7755
		c-3.3564,29.2279,0.3656,57.9837,7.3184,86.1934c14.2762,57.9236,32.4749,114.6412,55.8263,169.6016
		c7.1182,16.7533,16.0358,32.5505,27.8408,46.5782c17.5027,20.7979,40.8575,31.4059,66.3189,38.5297
		c20.3557,5.6952,41.3086,9.0188,61.3971,15.7767c28.3625,9.5411,55.022,22.101,77.0609,42.929
		c28.0549,26.5133,39.5146,59.2778,34.6285,97.2509c-6.8193,52.9969-34.0382,94.7358-74.7019,127.9342
		c-44.0836,35.9906-94.7493,53.4421-151.9564,49.9056c-26.5037-1.6383-51.7323-9.0135-76.3174-18.7319
		c-45.9268-18.1544-87.1215-44.4749-126.4629-73.8568c-22.02-16.4454-43.03-34.276-65.3966-50.2175
		c-41.1735-29.3458-86.7727-46.3995-138.0566-45.0909c-27.3237,0.697-52.2873,9.1646-74.8467,24.6704
		c-34.8968,23.9858-67.3818,51.173-101.4066,76.3154c-34.8737,25.7698-70.439,50.4288-110.1722,68.361
		c-29.7238,13.4148-60.5255,21.6132-93.4905,18.4855c-31.1143-2.952-60.1495-12.7739-87.5494-27.5398
		c-39.9938-21.553-73.7102-50.2195-98.4839-88.641c-13.5256-20.9768-22.7793-43.6317-24.6412-68.869
		c-2.1965-29.7721,8.6128-54.3464,29.6373-74.9515c19.8489-19.453,43.8793-32.306,68.7896-43.7511
		c22.2562-10.226,45.0754-19.1466,68.198-27.1292c35.0821-12.1115,62.5505-34.1681,85.3122-62.7838
		c28.126-35.3595,47.2686-75.4393,62.0441-117.8591c9.3073-26.7209,19.1521-53.2595,25.5527-80.891
		c4.9034-21.168,8.0658-42.5148,6.7424-64.3487c-2.4944-41.154-22.4273-69.7958-60.8987-85.2244
		c-32.1384-12.8888-64.4115-25.4583-96.3224-38.8884c-10.4129-4.3824-20.9322-8.637-31.2877-13.2042
		c-13.165-5.8063-26.4572-11.3781-39.4467-17.5858c-19.2447-9.1971-38.4531-18.5961-54.9619-32.3721
		c-18.1728-15.1646-35.8616-30.8215-48.012-51.6777c-9.1456-15.6984-14.4169-32.7127-14.7276-50.6168
		c-0.8253-47.5559,11.3469-91.4791,41.519-128.9589c21.7095-26.9675,51.3708-40.0213,85.406-43.443
		c28.7144-2.8868,56.2638,1.563,83.0297,12.6603c29.5797,12.264,60.6642,19.9776,91.5323,28.2469
		c9.8298,2.6333,19.6123,5.4435,29.4472,8.057c17.341,4.6083,35.0179,7.7029,52.5306,11.5392
		c3.1364,0.687,3.5166-1.3625,3.9478-3.6313c1.6719-8.7988-1.2853-16.6536-5.0032-24.2979
		c-9.4634-19.4575-20.8533-37.9143-29.6953-57.7093c-13.5255-30.2802-22.6122-61.7343-25.1794-94.8488
		c-3.2038-41.3278-0.203-82.1321,12.4883-121.831c25.113-78.554,78.5518-128.8224,155.7135-155.2169
		c20.2196-6.9165,40.9614-11.8071,62.1188-14.5646c7.1478-0.9316,14.6511-1.1717,21.6358-2.2102
		c17.542-2.6082,35.0654-2.6736,52.6336-2.9772c11.1653-0.1929,22.3168,0.5913,33.4286,1.7569
		c42.8287,4.4926,83.5465,15.529,120.3054,38.8329c10.7144,6.7926,21.1155,14.0838,30.2703,22.8441
		c5.3372,5.1071,10.3356,10.6685,15.3419,16.1566c4.385,4.807,9.4597,9.1968,13.3834,14.3571
		c10.4211,13.7054,19.3732,28.2818,27.2505,43.7385c8.234,16.1565,14.7583,32.7879,19.8364,50.0312
		c3.0037,10.1998,5.8075,20.5074,6.8149,31.2406c0.6355,6.7707,2.9135,13.3163,3.2368,20.248
		c0.1353,2.8983,0.8469,5.8202,0.5262,8.8089c-0.6957,6.4874,1.0898,12.8202,1.1937,19.3
		c0.2125,13.2754-1.1256,26.4682-3.2014,39.4198c-3.4531,21.5454-7.6664,43.0591-15.8221,63.48
		c-10.0326,25.1209-23.3276,48.3665-40.4473,69.3822c-4.5023,5.5269-8.8612,11.1798-13.0712,16.9321
		c-2.4384,3.3318-5.5106,7.1154-3.1592,11.3478c2.1648,3.8967,6.7917,3.7277,10.7965,3.7325
		c13.7491,0.0167,27.1259-2.8871,40.5347-5.4284c44.8933-8.5084,88.6445-21.3064,132.0779-35.2923
		c41.7039-13.429,83.2164-13.2703,124.3411,2.3078c42.2476,16.0034,68.5948,46.1866,79.713,89.9449
		C1233.7223,557.6424,1236.4883,576.5062,1236.7267,595.7487z M625.4066,472.8702c21.5424-0.1839,42.4285-3.7032,62.506-11.8185
		c6.9081-2.7922,14.2408-5.3898,20.1851-9.3388c9.4398-6.2712,19.3916-11.8828,28.0073-19.6147
		c13.4752-12.0931,25.7131-25.3008,36.0468-39.9505c6.7856-9.6198,12.3259-20.3847,16.6497-31.532
		c0.4401-1.1343,0.5936-2.6472,0.3594-4.2431c-1.7122-11.6649-7.8876-18.5829-19.1786-20.8937
		c-8.7872-1.7984-19.5739,2.7433-22.4445,10.8293c-4.0221,11.3294-11.507,20.4827-18.0934,30.0229
		c-6.2172,9.0054-14.3506,16.8528-23.2252,23.6198c-17.2626,13.1628-35.5782,23.6661-57.657,26.9801
		c-12.7622,1.9157-25.2255,3.2202-38.1601,1.8087c-15.4239-1.6831-29.8076-6.3389-43.4174-13.2535
		c-18.9073-9.606-34.1388-23.7622-47.1917-40.3853c-6.6761-8.5021-12.4331-17.5381-17.2464-27.2051
		c-5.3256-10.6955-18.3562-15.5984-28.5972-10.8337c-11.3082,5.2613-16.1032,17.1795-11.0857,28.7011
		c4.4499,10.2183,10.7227,19.3961,17.3835,28.3148c21.9113,29.3383,47.8066,53.6667,82.7226,67.0029
		C583.1095,468.7732,603.8186,473.0324,625.4066,472.8702z M144.8651,727.7904c10.4339,0.2833,20.6334-0.6766,30.2928-5.0479
		c7.7547-3.5094,13.7332-9.2092,16.6182-16.9645c3.8065-10.2321,2.2374-20.6237-2.1453-30.5873
		c-4.1991-9.5464-10.0637-17.9916-16.7424-25.9288c-5.5127-6.5515-10.1823-13.6235-12.4948-21.9683
		c-2.3024-8.3086,0.0802-13.3888,7.8187-17.1955c3.9127-1.9247,8.0571-3.1428,12.3799-3.7135
		c12.2637-1.6191,24.3679-3.7587,35.175-10.3407c16.1739-9.8506,23.9214-24.1751,20.3846-43.6257
		c-1.9675-10.8203-8.3245-19.1948-13.9554-28.0779c-3.6062-5.6891-8.8759-10.3188-10.6716-17.1815
		c-1.4229-5.4375-0.649-8.2387,4.3284-10.7801c6.1576-3.144,12.6354-4.5575,19.7615-4.5054
		c4.5804,0.0335,9.647-0.337,14.0292-1.8532c6.8387-2.366,10.7124-11.0277,9.3537-18.6057
		c-1.2182-6.7948-7.5874-12.6488-14.7247-12.787c-14.9929-0.2904-29.5597,1.8598-43.0892,8.851
		c-16.8522,8.7082-25.0754,24.5572-22.0065,43.0215c1.8162,10.9271,7.2508,20.2726,13.6224,29.1539
		c4.0877,5.6978,8.7783,11.037,10.9196,17.9521c0.9671,3.123,0.6927,5.6201-1.9075,7.9769
		c-5.5256,5.0082-12.2736,6.8858-19.3359,7.7904c-13.2946,1.703-25.8007,5.0895-37.3073,12.5543
		c-12.6616,8.2141-22.182,30.2053-17.9048,44.6957c4.3223,14.6434,10.8371,28.1669,21.0505,39.7626
		c4.9615,5.6331,9.2164,11.7925,12.0457,18.8555c1.279,3.1929,0.8647,4.8646-2.9102,5.5099
		c-7.1637,1.2245-14.25,0.6223-21.3993,0.0165c-8.849-0.7498-16.4298,6.1196-17.7848,13.8289
		c-1.7011,9.679,7.3998,18.8585,15.6309,18.6022C137.5431,727.085,141.2083,727.5746,144.8651,727.7904z M1115.5164,727.8107
		c4.1584-0.2162,8.3344-0.2634,12.4705-0.694c4.5586-0.4745,8.778-1.918,11.896-5.6023c4.3582-5.1501,5.2549-11.9078,2.3167-17.7313
		c-3.167-6.2767-9.2762-9.787-16.4263-8.9789c-5.9874,0.6766-11.9703,1.0684-17.9473,0.4482
		c-7.563-0.7847-8.0426-1.7984-4.8617-8.5927c3.2103-6.8574,7.9161-12.6887,12.6516-18.5078
		c8.2927-10.1901,14.7664-21.3391,17.8621-34.2468c5.2792-22.0114-3.4904-41.4974-23.4756-52.097
		c-8.9604-4.7525-18.6565-7.0021-28.6282-8.2197c-6.3265-0.7725-12.5074-2.0316-18.1056-5.2169
		c-5.7972-3.2986-6.788-6.1816-4.4769-12.412c1.7629-4.7524,4.734-8.7682,7.8396-12.6992
		c6.2336-7.8898,11.5304-16.3127,14.7207-25.9324c6.574-19.8224-0.4482-38.4079-18.5597-48.7749
		c-13.0963-7.4964-27.4717-9.8214-42.3082-9.9775c-9.9329-0.1046-17.1978,6.3274-17.5275,15.2982
		c-0.3557,9.6801,5.983,16.2074,16.3717,16.8629c8.8145,0.5562,17.6645,0.9737,25.8277,4.9066
		c6.0685,2.9237,7.3521,6.1564,5.1179,12.5419c-1.7855,5.103-4.7749,9.5135-8.0642,13.7211
		c-5.7677,7.3777-11.0269,15.0276-14.2494,23.9308c-6.7995,18.7858-0.9526,37.0592,15.5089,48.2841
		c8.1262,5.5412,17.1688,8.6992,26.7668,10.4894c7.3394,1.3689,14.9005,1.5825,21.9285,4.5746
		c9.7574,4.1542,12.4344,9.7936,9.1538,19.8816c-2.7885,8.5747-8.147,15.556-13.7502,22.4243
		c-7.8401,9.6101-14.5712,19.8535-17.8152,32.0566c-4.9004,18.4329,3.6812,34.7431,21.6313,40.9252
		C1099.2119,727.1689,1107.2964,727.9039,1115.5164,727.8107z M888.9682,1308.2659c-25.2094-0.1752-42.7749,13.564-47.5728,37.5679
		c-2.8086,14.0521-0.7958,27.8461,3.2368,41.4254c2.2358,7.5284,3.9484,15.1171,3.7135,23.0728
		c-0.1074,3.6448-1.3513,4.6238-4.9136,3.731c-7.205-1.8058-13.5452-5.4531-20.1156-8.6797
		c-8.1508-4.0026-17.396-0.9875-21.5073,6.6931c-4.0994,7.6582-1.4518,17.0435,6.3162,21.6621
		c8.3341,4.9552,17.1163,8.9474,26.5453,11.371c26.2909,6.7577,45.5355-7.7954,46.1875-34.9341
		c0.255-10.61-1.8827-20.8628-4.8947-30.9546c-2.4502-8.2097-3.9862-16.5085-3.0938-25.1167
		c0.9622-9.2814,5.4059-13.4011,14.6226-13.6152c5.5616-0.1293,10.9122,0.9951,16.2141,2.5444
		c10.3021,3.0101,20.7302,4.6165,31.542,3.5669c19.7028-1.9125,33.6737-14.4963,37.1282-34.0018
		c1.8409-10.3953,0.1038-20.554-2.4789-30.6282c-1.6956-6.6139-3.4011-13.2202-2.1544-20.1835
		c0.6731-3.7603,2.6476-5.8832,6.4268-6.6044c2.6605-0.5077,5.2644-0.601,7.9385-0.2791
		c7.5081,0.9038,14.5397,3.3645,21.5643,6.0562c8.4297,3.2297,17.3085-0.8177,20.6235-8.9652
		c3.2585-8.0087-0.0474-16.9734-8.0627-20.6168c-13.1912-5.9963-26.9689-9.5132-41.6249-8.8082
		c-20.2911,0.9762-35.2161,14.0553-38.7388,33.9081c-2,11.2706-0.2159,22.2202,2.5237,33.1041
		c1.2606,5.0085,2.6904,9.994,2.4545,15.2202c-0.2947,6.5233-2.6104,8.9774-9.0895,9.6256
		c-6.4001,0.6403-12.606-0.5093-18.7168-2.3392C905.1902,1309.7363,897.2115,1308.1617,888.9682,1308.2659z M418.8662,1329.5181
		c0-1.8325,0.0847-3.6697-0.0128-5.4971c-1.285-24.1025-16.0761-41.6072-38.3377-45.2687
		c-12.1174-1.993-23.8464,0.1577-35.4725,3.5071c-6.7531,1.9457-13.5902,3.2399-20.6743,1.4799
		c-3.1583-0.7847-4.8196-2.6333-5.5076-5.7012c-1.2881-5.7438-0.0497-11.2874,1.4268-16.7451
		c2.6714-9.8746,4.2801-19.8391,3.6729-30.1022c-1.1798-19.943-14.0525-34.4834-33.6312-37.8536
		c-16.0405-2.7612-31.0934,1.0414-45.7171,7.2034c-9.3633,3.9454-13.308,12.9777-9.6849,21.5442
		c3.648,8.6256,12.7746,12.0385,22.1698,8.2091c6.5049-2.6514,13.1638-4.7155,20.1592-5.5225
		c11.1353-1.2843,15.5315,2.9978,14.5357,14.0852c-0.0743,0.8274-0.2292,1.6504-0.3904,2.4668
		c-1.6422,8.3186-3.6166,16.5867-4.8785,24.9623c-3.2131,21.3264,6.1672,39.6046,24.0605,46.8613
		c13.5557,5.4977,27.4008,4.4091,41.202,0.795c6.7599-1.7701,13.4316-3.9102,20.5708-3.5256
		c8.3333,0.4491,12.3803,4.0254,13.7793,12.283c1.4591,8.6134-0.1843,16.9161-2.5678,25.1128
		c-3.6968,12.7128-6.2806,25.4984-4.6546,38.8792c2.2161,18.2374,15.5947,30.3148,33.8738,29.8594
		c14.9868-0.3732,28.0115-6.6687,40.4132-14.4158c1.6049-1.0026,2.8614-2.8103,3.8582-4.4943
		c3.573-6.0358,2.6124-13.8481-2.1411-19.007c-5.0461-5.4766-12.5767-6.7823-19.6766-3.0739
		c-5.6139,2.9321-11.1442,6.0234-17.2554,7.8016c-6.6967,1.9487-7.1022,1.5717-7.1808-5.2585
		c-0.0817-7.0947,1.6826-13.8602,3.6351-20.5817C417.1003,1348.366,419.0099,1339.1027,418.8662,1329.5181z M625.0984,565.4854
		c-34.9344-0.8713-62.1775,27.8054-62.1107,63.2079c0.0646,34.2703,26.3939,63.7551,61.8419,63.6609
		c35.2205-0.0936,61.6801-27.3804,62.0862-64.3595C687.2795,594.8781,659.4519,564.6765,625.0984,565.4854z M625.0896,993.4953
		c-33.5678-1.3901-62.7825,29.2795-62.1518,63.7885c0.6345,34.7152,27.255,62.9917,62.1301,63.2153
		c34.0754,0.2184,61.9818-30.2919,62.111-63.6084C687.3121,1022.5577,657.9207,992.1577,625.0896,993.4953z M625.3251,773.5113
		c-34.2284-0.3602-62.8757,28.4677-62.3379,64.2207c0.5275,35.0648,27.322,62.7434,62.1642,62.7817
		c34.4718,0.0379,62.4269-28.5855,61.8282-65.0588C686.4312,802.0466,659.5378,773.6041,625.3251,773.5113z M717.1934,279.2826
		c3.7483,0.6991,7.8246-0.5396,11.9363-1.8536c11.0406-3.5281,19.2838-11.2008,24.304-20.7936
		c4.8047-9.181,6.752-19.9114,4.51-30.7166c-2.0973-10.1077-6.2458-19.0546-13.9561-26.1891
		c-6.9506-6.4318-15.032-10.2813-24.5027-10.5959c-9.3007-0.309-18.0645,0.9997-25.6744,7.5112
		c-6.34,5.4247-11.4929,11.4813-14.7246,19.1059c-3.4946,8.2448-4.2335,16.5841-3.1352,25.715
		C678.2034,260.1926,695.6672,280.3057,717.1934,279.2826z M490.7325,237.9212c-0.6903,6.227,2.0307,13.4721,6.2067,20.3573
		c14.5819,24.0424,38.1339,27.0654,57.922,13.3669c22.5275-15.5948,24.7513-50.8302,5.5601-70.4657
		c-14.0865-14.4126-36.0352-16.4633-51.7737-4.4652C495.7932,206.514,490.283,219.929,490.7325,237.9212z"/>
	<path fill="#FEFEFE" d="M625.4066,472.8702c-21.588,0.1622-42.2971-4.097-62.4369-11.7894
		c-34.916-13.3362-60.8113-37.6646-82.7226-67.0029c-6.6608-8.9187-12.9336-18.0965-17.3835-28.3148
		c-5.0175-11.5216-0.2225-23.4398,11.0857-28.7011c10.241-4.7648,23.2715,0.1382,28.5972,10.8337
		c4.8134,9.667,10.5703,18.703,17.2464,27.2051c13.0529,16.6231,28.2844,30.7793,47.1917,40.3853
		c13.6097,6.9146,27.9935,11.5704,43.4174,13.2535c12.9346,1.4115,25.3979,0.107,38.1601-1.8087
		c22.0789-3.314,40.3945-13.8173,57.657-26.9801c8.8746-6.767,17.0081-14.6144,23.2252-23.6198
		c6.5864-9.5402,14.0713-18.6935,18.0934-30.0229c2.8706-8.086,13.6572-12.6277,22.4445-10.8293
		c11.291,2.3109,17.4664,9.2289,19.1786,20.8937c0.2343,1.5958,0.0807,3.1087-0.3594,4.2431
		c-4.3237,11.1473-9.864,21.9121-16.6497,31.532c-10.3336,14.6498-22.5715,27.8574-36.0468,39.9505
		c-8.6157,7.7319-18.5675,13.3435-28.0073,19.6147c-5.9443,3.949-13.277,6.5466-20.1851,9.3388
		C667.8351,469.1669,646.949,472.6863,625.4066,472.8702z"/>
	<path fill="#FEFEFE" d="M144.8651,727.7904c-3.6567-0.2158-7.322-0.7054-10.9685-0.5918
		c-8.2311,0.2563-17.332-8.9233-15.6309-18.6022c1.355-7.7093,8.9358-14.5787,17.7848-13.8289
		c7.1493,0.6058,14.2356,1.208,21.3993-0.0165c3.7748-0.6453,4.1891-2.317,2.9102-5.5099
		c-2.8292-7.0629-7.0842-13.2224-12.0457-18.8555c-10.2133-11.5956-16.7281-25.1192-21.0505-39.7626
		c-4.2772-14.4904,5.2432-36.4816,17.9048-44.6957c11.5066-7.4648,24.0127-10.8513,37.3073-12.5543
		c7.0623-0.9046,13.8102-2.7822,19.3359-7.7904c2.6002-2.3568,2.8746-4.8539,1.9075-7.9769
		c-2.1412-6.915-6.8318-12.2543-10.9196-17.9521c-6.3716-8.8813-11.8063-18.2268-13.6224-29.1539
		c-3.0688-18.4643,5.1544-34.3133,22.0065-43.0215c13.5295-6.9912,28.0963-9.1414,43.0892-8.851
		c7.1373,0.1382,13.5065,5.9922,14.7247,12.787c1.3587,7.578-2.515,16.2397-9.3537,18.6057
		c-4.3823,1.5162-9.4488,1.8867-14.0292,1.8532c-7.1261-0.0521-13.6039,1.3614-19.7615,4.5054
		c-4.9775,2.5414-5.7513,5.3426-4.3284,10.7801c1.7958,6.8627,7.0654,11.4923,10.6716,17.1815
		c5.6309,8.8832,11.9879,17.2576,13.9554,28.0779c3.5367,19.4506-4.2108,33.7751-20.3846,43.6257
		c-10.8071,6.582-22.9113,8.7216-35.175,10.3407c-4.3228,0.5707-8.4673,1.7888-12.3799,3.7135
		c-7.7385,3.8067-10.1211,8.8869-7.8187,17.1955c2.3124,8.3448,6.9821,15.4169,12.4948,21.9683
		c6.6787,7.9372,12.5433,16.3824,16.7424,25.9288c4.3826,9.9637,5.9518,20.3552,2.1453,30.5873
		c-2.8851,7.7552-8.8635,13.4551-16.6182,16.9645C165.4984,727.1138,155.299,728.0737,144.8651,727.7904z"/>
	<path fill="#FEFEFE" d="M1115.5164,727.8107c-8.22,0.0931-16.3044-0.6418-24.1321-3.3376
		c-17.9502-6.1821-26.5317-22.4922-21.6313-40.9252c3.244-12.2031,9.9751-22.4465,17.8152-32.0566
		c5.6033-6.8683,10.9618-13.8496,13.7502-22.4243c3.2806-10.088,0.6036-15.7274-9.1538-19.8816
		c-7.028-2.9921-14.5891-3.2057-21.9285-4.5746c-9.598-1.7903-18.6406-4.9482-26.7668-10.4894
		c-16.4615-11.2249-22.3084-29.4983-15.5089-48.2841c3.2225-8.9031,8.4817-16.5531,14.2494-23.9308
		c3.2893-4.2076,6.2787-8.6181,8.0642-13.7211c2.2341-6.3855,0.9506-9.6182-5.1179-12.5419
		c-8.1632-3.9329-17.0132-4.3504-25.8277-4.9066c-10.3887-0.6555-16.7274-7.1828-16.3717-16.8629
		c0.3297-8.9708,7.5946-15.4028,17.5275-15.2982c14.8365,0.1561,29.2119,2.4811,42.3082,9.9775
		c18.1115,10.367,25.1337,28.9525,18.5597,48.7749c-3.1903,9.6197-8.4871,18.0425-14.7207,25.9324
		c-3.1056,3.931-6.0767,7.9468-7.8396,12.6992c-2.311,6.2304-1.3203,9.1133,4.4769,12.412
		c5.5981,3.1852,11.7791,4.4443,18.1056,5.2169c9.9717,1.2176,19.6677,3.4672,28.6282,8.2197
		c19.9852,10.5997,28.7548,30.0856,23.4756,52.097c-3.0957,12.9077-9.5693,24.0566-17.8621,34.2468
		c-4.7355,5.8191-9.4413,11.6504-12.6516,18.5078c-3.1809,6.7943-2.7013,7.808,4.8617,8.5927
		c5.9769,0.6201,11.9598,0.2284,17.9473-0.4482c7.15-0.8082,13.2593,2.7022,16.4263,8.9789
		c2.9382,5.8234,2.0415,12.5812-2.3167,17.7313c-3.118,3.6843-7.3374,5.1277-11.896,5.6023
		C1123.8507,727.5473,1119.6748,727.5945,1115.5164,727.8107z"/>
	<path fill="#FEFEFE" d="M888.9673,1308.2717c8.2441-0.11,16.2229,1.4646,24.0746,3.8162c6.1108,1.83,12.3167,2.9795,18.7168,2.3392
		c6.4791-0.6482,8.7948-3.1023,9.0895-9.6256c0.236-5.2262-1.1938-10.2117-2.4545-15.2202
		c-2.7396-10.8839-4.5237-21.8335-2.5237-33.1041c3.5227-19.8528,18.4476-32.9319,38.7388-33.9081
		c14.656-0.705,28.4337,2.8119,41.6249,8.8082c8.0153,3.6434,11.3212,12.6082,8.0627,20.6168
		c-3.315,8.1475-12.1938,12.1949-20.6235,8.9652c-7.0247-2.6917-14.0563-5.1523-21.5643-6.0562
		c-2.6741-0.3219-5.278-0.2286-7.9385,0.2791c-3.7792,0.7212-5.7537,2.8441-6.4268,6.6044
		c-1.2467,6.9633,0.4589,13.5696,2.1544,20.1835c2.5826,10.0742,4.3198,20.2329,2.4789,30.6282
		c-3.4545,19.5055-17.4254,32.0894-37.1282,34.0018c-10.8118,1.0496-21.2399-0.5568-31.542-3.5669
		c-5.3019-1.5493-10.6525-2.6737-16.2141-2.5444c-9.2167,0.2141-13.6604,4.3339-14.6226,13.6152
		c-0.8925,8.6082,0.6436,16.907,3.0938,25.1167c3.012,10.0918,5.1497,20.3446,4.8947,30.9546
		c-0.652,27.1387-19.8966,41.6918-46.1875,34.9341c-9.429-2.4236-18.2112-6.4158-26.5453-11.371
		c-7.7679-4.6187-10.4155-14.0039-6.3162-21.6621c4.1113-7.6807,13.3566-10.6957,21.5073-6.6931
		c6.5704,3.2266,12.9106,6.8739,20.1156,8.6797c3.5623,0.8928,4.8062-0.0862,4.9136-3.731
		c0.2349-7.9557-1.4777-15.5443-3.7135-23.0728c-4.0326-13.5793-6.0454-27.3733-3.2368-41.4254
		C846.1933,1321.8298,863.7589,1308.0907,888.9673,1308.2717z"/>
	<path fill="#FEFEFE" d="M418.8662,1329.5181c0.1436,9.5846-1.766,18.8479-4.4257,28.0032
		c-1.9526,6.7214-3.7169,13.4869-3.6351,20.5817c0.0786,6.8302,0.4841,7.2073,7.1808,5.2585
		c6.1112-1.7782,11.6415-4.8695,17.2554-7.8016c7.0999-3.7085,14.6306-2.4027,19.6766,3.0739
		c4.7534,5.1588,5.7141,12.9712,2.1411,19.007c-0.9968,1.684-2.2534,3.4917-3.8582,4.4943
		c-12.4017,7.7471-25.4264,14.0426-40.4132,14.4158c-18.2792,0.4554-31.6577-11.6219-33.8738-29.8594
		c-1.626-13.3807,0.9578-26.1664,4.6546-38.8792c2.3835-8.1967,4.0269-16.4994,2.5678-25.1128
		c-1.399-8.2576-5.446-11.8339-13.7793-12.283c-7.1392-0.3845-13.8109,1.7555-20.5708,3.5256
		c-13.8012,3.614-27.6464,4.7026-41.202-0.795c-17.8934-7.2567-27.2736-25.5349-24.0605-46.8613
		c1.2619-8.3756,3.2364-16.6437,4.8785-24.9623c0.1611-0.8164,0.316-1.6394,0.3904-2.4668
		c0.9958-11.0874-3.4004-15.3695-14.5357-14.0852c-6.9955,0.807-13.6543,2.8711-20.1592,5.5225
		c-9.3952,3.8293-18.5218,0.4165-22.1698-8.2091c-3.6231-8.5665,0.3216-17.5988,9.6849-21.5442
		c14.6236-6.162,29.6766-9.9646,45.7171-7.2034c19.5787,3.3702,32.4514,17.9106,33.6312,37.8536
		c0.6072,10.2631-1.0015,20.2275-3.6729,30.1022c-1.4765,5.4578-2.715,11.0013-1.4268,16.7451
		c0.688,3.0679,2.3493,4.9165,5.5076,5.7012c7.0841,1.76,13.9212,0.4658,20.6743-1.4799
		c11.6261-3.3494,23.355-5.5001,35.4725-3.5071c22.2616,3.6615,37.0527,21.1661,38.3377,45.2687
		C418.9509,1325.8484,418.8662,1327.6855,418.8662,1329.5181z"/>
	<path fill="#C1272E" d="M625.0984,565.4854c34.3535-0.8088,62.181,29.3928,61.8174,62.5093
		c-0.4061,36.9791-26.8657,64.2659-62.0862,64.3595c-35.4481,0.0942-61.7773-29.3906-61.8419-63.6609
		C562.921,593.2907,590.1641,564.614,625.0984,565.4854z"/>
	<path fill="#C1272E" d="M625.0896,993.4953c32.8311-1.3376,62.2225,29.0624,62.0894,63.3954
		c-0.1292,33.3165-28.0356,63.8268-62.111,63.6084c-34.8751-0.2236-61.4957-28.5001-62.1301-63.2153
		C562.3071,1022.7748,591.5218,992.1052,625.0896,993.4953z"/>
	<path fill="#C1272E" d="M625.3251,773.5113c34.2126,0.0928,61.106,28.5353,61.6545,61.9436
		c0.5988,36.4733-27.3564,65.0967-61.8282,65.0588c-34.8423-0.0383-61.6368-27.7169-62.1642-62.7817
		C562.4494,801.9789,591.0967,773.1511,625.3251,773.5113z"/>
	<path fill="#FEFEFE" d="M717.1934,279.2826c-21.5262,1.0231-38.9901-19.09-41.2427-37.8168
		c-1.0983-9.1309-0.3594-17.4702,3.1352-25.715c3.2317-7.6247,8.3846-13.6812,14.7246-19.1059
		c7.61-6.5115,16.3738-7.8201,25.6744-7.5112c9.4707,0.3146,17.5521,4.1641,24.5027,10.5959
		c7.7102,7.1346,11.8588,16.0815,13.9561,26.1891c2.2419,10.8052,0.2947,21.5357-4.51,30.7166
		c-5.0201,9.5928-13.2633,17.2655-24.304,20.7936C725.018,278.743,720.9417,279.9817,717.1934,279.2826z"/>
	<path fill="#FEFEFE" d="M490.7325,237.9212c-0.4495-17.9922,5.0608-31.4072,17.9152-41.2066
		c15.7384-11.9981,37.6871-9.9474,51.7737,4.4652c19.1913,19.6354,16.9675,54.8708-5.5601,70.4657
		c-19.7881,13.6985-43.3401,10.6755-57.922-13.3669C492.7632,251.3933,490.0421,244.1483,490.7325,237.9212z"/>
</g>
</svg>
