<?xml version="1.0" encoding="iso-8859-1"?>
<!-- Uploaded to: SVG Repo, www.svgrepo.com, Generator: SVG Repo Mixer Tools -->
<!DOCTYPE svg PUBLIC "-//W3C//DTD SVG 1.1//EN" "http://www.w3.org/Graphics/SVG/1.1/DTD/svg11.dtd">
<svg fill="#f5f5f5"  height="800px" width="800px" version="1.1" id="Capa_1" xmlns="http://www.w3.org/2000/svg" xmlns:xlink="http://www.w3.org/1999/xlink" 
	 viewBox="0 0 313.5 313.5" xml:space="preserve">
<g>
	<path d="M254.954,31.834c-5.465,0-10.548,1.663-14.771,4.509C222.187,13.417,194.651,0,165.468,0h-19.354
		c-25.847,0-49.694,13.909-62.42,36.406C77.716,46.973,73.297,58.288,70.5,70h-2.407c-15.715,0-28.5,12.785-28.5,28.5
		c0,10.77,6.006,20.16,14.842,25.006c-3.185,9.025-4.926,18.727-4.926,28.828c0,10.635,1.908,20.99,5.586,30.71
		c4.756-1.167,9.692-2.502,14.59-3.883c-3.405-8.447-5.176-17.507-5.176-26.827c0-8.915,1.646-17.45,4.627-25.334H203.55
		c2.981,7.884,4.627,16.419,4.627,25.334c0,9.326-1.772,18.383-5.178,26.827c4.9,1.382,9.839,2.717,14.597,3.885
		c3.677-9.716,5.581-20.071,5.581-30.712c0-10.102-1.74-19.803-4.926-28.828c8.836-4.846,14.842-14.236,14.842-25.006
		c0-10.927-6.184-20.432-15.233-25.213c3.624-2.8,7.771-4.811,12.181-5.923c3.701,10.179,13.471,17.47,24.914,17.47
		c14.611,0,26.5-11.888,26.5-26.5S269.565,31.834,254.954,31.834z M218.093,98.5c0,7.444-6.057,13.5-13.5,13.5h-136.5
		c-7.443,0-13.5-6.056-13.5-13.5S60.649,85,68.093,85h136.5C212.036,85,218.093,91.056,218.093,98.5z M254.954,69.834
		c-6.342,0-11.5-5.159-11.5-11.5s5.158-11.5,11.5-11.5c6.341,0,11.5,5.159,11.5,11.5S261.295,69.834,254.954,69.834z"/>
	<circle cx="161.344" cy="139.834" r="8.929"/>
	<circle cx="111.342" cy="139.834" r="8.929"/>
	<path d="M155.175,236.667c-6.828,0-13.264-1.942-18.917-5.638c-5.652,3.695-12.297,5.638-19.125,5.638
		c-8.023,0-25.514,0.322-47.514-2.351V247.5c0,36.451,29.55,66,66,66s66-29.549,66-66v-13.184
		C183.62,236.68,167.536,236.667,155.175,236.667z"/>
	<path d="M237.59,201.891C212.004,199.852,165.064,182,155.342,182c-0.698,0-1.385,0.049-2.064,0.119
		c1.827-3.002,2.899-6.514,2.899-10.285c0-10.807-8.789-19.834-19.834-19.834c-11.031,0-19.834,9.015-19.834,19.834
		c0,3.771,1.072,7.283,2.899,10.285c-0.681-0.07-1.367-0.119-2.066-0.119c-9.722,0-56.662,17.852-82.248,19.891
		c-1.417,0.112-2.604,1.117-2.948,2.496c-0.346,1.378,0.226,2.825,1.423,3.592c20.345,13.033,61.005,13.689,83.773,13.689
		c8.981,0,16.56-5.975,19-14.163c2.44,8.188,10.019,14.163,19,14.163c23.238,0,63.494-0.696,83.773-13.689
		c1.198-0.767,1.771-2.213,1.426-3.592C240.195,203.007,239.007,202.003,237.59,201.891z"/>
</g>
</svg>