<?xml version="1.0" standalone="no"?>
<!DOCTYPE svg PUBLIC "-//W3C//DTD SVG 20010904//EN"
 "http://www.w3.org/TR/2001/REC-SVG-20010904/DTD/svg10.dtd">
<svg version="1.0" xmlns="http://www.w3.org/2000/svg"
 width="1280.000000pt" height="727.000000pt" viewBox="0 0 1280.000000 727.000000"
 preserveAspectRatio="xMidYMid meet" >
<metadata>
Created by potrace 1.15, written by Peter Selinger 2001-2017
</metadata>
<g transform="translate(0.000000,727.000000) scale(0.100000,-0.100000)"
fill="#fefefe" stroke="none">
<path d="M9990 7200 c-157 -39 -420 -102 -585 -141 -286 -68 -487 -116 -1042
-248 -137 -32 -507 -120 -823 -195 -680 -162 -1064 -254 -2420 -576 -558 -133
-1060 -252 -1115 -265 -55 -13 -678 -162 -1385 -329 -707 -168 -1341 -319
-1410 -336 -327 -78 -381 -90 -395 -90 -17 0 -18 5 -45 154 -26 147 -62 221
-152 308 -53 52 -81 71 -120 83 -65 19 -135 19 -217 0 -174 -41 -264 -154
-278 -350 -15 -214 50 -450 222 -804 l106 -218 -7 -174 c-12 -316 26 -557 119
-763 l31 -68 -22 -19 -23 -18 420 -920 c231 -506 439 -958 462 -1003 72 -144
148 -247 269 -368 100 -101 143 -135 335 -262 279 -185 393 -253 580 -348 159
-81 260 -119 390 -147 68 -15 142 -17 495 -18 l415 0 190 -32 c337 -57 475
-66 612 -37 108 22 149 44 258 140 53 47 113 93 133 103 21 10 100 37 177 60
262 79 572 205 995 406 287 136 421 191 634 261 230 75 522 148 926 233 525
110 576 116 900 116 346 0 518 -24 920 -125 196 -49 226 -60 445 -157 216 -96
233 -102 548 -198 496 -150 669 -185 952 -192 372 -9 528 42 604 200 63 129
63 277 1 404 -64 129 -186 201 -525 308 -334 106 -479 134 -910 180 -634 66
-865 79 -1265 72 -401 -7 -662 -32 -1079 -103 -261 -44 -422 -83 -755 -184
-789 -238 -1385 -441 -1978 -675 -278 -110 -288 -115 -353 -170 -86 -73 -175
-109 -400 -164 -178 -43 -314 -55 -544 -48 -195 6 -306 19 -666 76 -104 17
-267 42 -360 56 -325 48 -407 84 -571 249 -165 165 -237 271 -264 384 -17 73
-8 119 30 154 28 25 30 32 24 65 -10 58 -45 119 -128 227 -42 55 -74 105 -72
112 7 19 -13 313 -24 354 -18 64 -24 68 -70 43 l-40 -22 -16 24 c-27 41 -53
145 -73 285 -28 197 -33 256 -22 245 5 -6 47 -63 93 -127 231 -324 603 -739
783 -875 200 -150 507 -321 705 -391 475 -170 995 -213 1550 -131 511 76 1696
406 2845 793 663 222 1817 639 3014 1088 1032 386 1477 593 1685 780 82 74
100 112 93 193 -23 240 -206 366 -466 321 -50 -9 -93 -16 -96 -16 -3 0 -5 299
-5 664 l0 664 63 22 64 21 6 106 c4 58 7 133 7 165 l0 58 -85 62 c-46 34 -83
64 -80 66 2 3 88 29 191 58 203 57 234 74 234 129 0 17 -10 51 -22 75 -18 35
-35 51 -77 73 -77 38 -176 38 -324 -2 l-108 -30 6 27 c10 47 -32 112 -90 142
-67 34 -193 34 -310 1 -44 -12 -87 -24 -96 -27 -12 -3 -15 5 -16 44 -2 148
-109 191 -343 141 -52 -11 -107 -22 -122 -26 l-26 -5 15 52 c9 30 12 66 9 85
-8 42 -70 100 -123 114 -64 18 -171 13 -276 -14 -54 -14 -102 -25 -107 -25 -5
0 -4 13 2 30 5 17 7 45 4 63 -18 97 -112 155 -263 162 -82 4 -107 0 -373 -65z
m1276 -1319 c135 -57 185 -81 189 -94 2 -6 8 -129 14 -272 6 -143 23 -514 37
-823 15 -313 22 -567 18 -572 -5 -4 -342 -126 -749 -270 -407 -145 -812 -289
-900 -320 -88 -32 -161 -57 -162 -56 -1 1 -13 229 -27 506 -14 278 -28 531
-31 562 l-5 56 275 92 c233 78 284 98 333 134 103 77 151 161 152 267 0 86
-41 170 -117 239 -69 63 -131 84 -245 83 l-88 -1 0 78 0 78 33 11 c17 5 275
78 572 162 297 83 551 155 565 159 43 14 65 11 136 -19z m-7320 -637 c-18 -48
-18 -122 2 -166 29 -67 84 -91 198 -87 l86 4 -6 -50 c-3 -27 -10 -144 -16
-260 -15 -298 -4 -267 -108 -293 -48 -12 -459 -120 -914 -240 l-827 -219 -55
173 c-104 322 -201 465 -371 545 -147 70 -328 8 -409 -141 -32 -59 -56 -139
-56 -190 0 -19 -4 -40 -8 -47 -5 -7 -51 26 -137 99 l-130 110 -8 76 c-5 46 -4
79 2 85 5 5 65 12 133 14 108 5 162 14 438 78 570 133 1487 355 2065 500 112
29 129 30 121 9z m4756 -105 c51 -22 97 -43 102 -46 5 -3 -67 -28 -160 -55
-93 -27 -382 -112 -643 -190 -381 -113 -475 -138 -482 -127 -9 15 -1 149 10
161 3 4 166 52 361 107 195 55 427 120 515 145 88 25 170 45 182 45 12 1 64
-17 115 -40z m-1719 -590 c-4 -4 -41 -17 -81 -29 l-74 -21 -31 36 c-20 22 -58
46 -102 65 -43 17 -64 31 -55 34 8 3 89 28 180 55 l165 48 3 -90 c1 -50 -1
-94 -5 -98z m-6043 14 c0 -16 2 -46 5 -68 l5 -40 -19 50 c-24 62 -26 85 -6 85
10 0 15 -10 15 -27z m329 -465 c183 -163 239 -219 248 -247 33 -93 111 -336
109 -338 -1 -1 -33 18 -72 44 -98 65 -277 249 -353 363 -71 106 -142 243 -196
376 l-35 89 31 -38 c17 -21 138 -133 268 -249z m7676 190 c4 -40 31 -291 60
-558 30 -266 53 -485 52 -486 -1 -1 -213 -74 -472 -162 -627 -213 -1732 -569
-1740 -560 -2 2 -26 217 -54 478 -28 261 -56 521 -62 578 -6 57 -9 105 -7 107
2 2 179 56 393 120 476 142 1020 309 1460 449 182 58 337 105 346 106 14 0 18
-14 24 -72z m-3192 6 c62 -25 121 -51 132 -57 16 -8 -10 -19 -150 -59 -169
-48 -905 -251 -958 -264 l-28 -6 7 93 c3 52 10 98 14 102 9 10 817 235 848
236 13 1 73 -20 135 -45z m-1593 -454 l-5 -85 -70 -17 c-166 -42 -689 -161
-907 -207 -287 -62 -389 -78 -534 -87 l-111 -7 -18 52 c-9 29 -15 54 -14 55 2
2 29 13 61 24 95 35 217 53 350 51 l123 -1 560 159 c308 88 562 157 565 154 3
-3 3 -44 0 -91z m-3540 -144 c232 -385 619 -697 1070 -864 l101 -37 4 -110
c11 -237 40 -394 101 -548 29 -72 33 -92 23 -98 -52 -29 -53 -31 -39 -105 47
-264 189 -619 336 -841 108 -163 281 -319 496 -447 86 -51 362 -177 422 -192
14 -3 29 -11 32 -16 9 -14 -313 12 -464 38 -159 27 -241 63 -456 199 -72 45
-205 118 -296 162 -193 94 -285 161 -380 279 -118 147 -179 262 -265 499 -25
72 -79 204 -119 295 -113 256 -128 311 -171 640 -14 106 -30 211 -36 234 -28
110 -106 301 -195 478 l-55 110 -24 -16 c-13 -9 -28 -16 -33 -16 -13 0 -47 81
-65 155 -14 55 -47 247 -47 274 0 21 9 10 60 -73z m5384 -253 c14 -90 146
-1093 146 -1111 0 -22 6 -20 -444 -143 -647 -178 -905 -234 -1173 -258 -153
-14 -533 -14 -593 0 -112 26 -417 201 -585 337 -157 128 -438 425 -418 442 5
4 62 12 127 19 374 37 781 131 1531 353 268 79 1367 392 1397 397 3 0 9 -16
12 -36z m4326 -1908 c328 -38 536 -85 828 -186 97 -33 260 -85 362 -115 323
-95 400 -125 400 -158 0 -31 -196 -85 -310 -86 -104 0 -473 54 -813 120 -139
27 -287 53 -330 58 -64 9 -101 21 -215 77 -138 67 -380 206 -460 264 -25 18
-40 36 -36 43 10 15 399 4 574 -17z"/>
</g>
</svg>
