<?xml version="1.0" encoding="iso-8859-1"?>
<!-- Uploaded to: SVG Repo, www.svgrepo.com, Generator: SVG Repo Mixer Tools -->
<!DOCTYPE svg PUBLIC "-//W3C//DTD SVG 1.1//EN" "http://www.w3.org/Graphics/SVG/1.1/DTD/svg11.dtd">
<svg fill="#f5f5ff" height="800px" width="800px" version="1.1" id="Capa_1" xmlns="http://www.w3.org/2000/svg" xmlns:xlink="http://www.w3.org/1999/xlink" 
	 viewBox="0 0 304.303 304.303" xml:space="preserve">
<path d="M273.428,105.27l-17.018-8.941l16.41-6.827c3.824-1.591,5.635-5.981,4.044-9.806c-1.592-3.825-5.984-5.635-9.806-4.044
	l-17.485,7.274l1.985-8.152c0.98-4.024-1.488-8.082-5.513-9.062c-4.032-0.987-8.082,1.489-9.062,5.513l-4.588,18.848l-24.001,9.984
	c-4.609-9.881-11.738-18.342-20.563-24.57c6.519-7.97,10.433-18.152,10.433-29.251C198.266,20.7,177.565,0,152.03,0
	c-25.535,0-46.235,20.7-46.235,46.235c0,11.099,3.914,21.281,10.433,29.251c-8.799,6.21-15.914,14.641-20.523,24.485l-23.798-9.899
	l-4.588-18.848c-0.979-4.024-5.029-6.499-9.062-5.513c-4.024,0.979-6.492,5.037-5.513,9.062l1.985,8.152l-17.485-7.274
	c-3.823-1.591-8.215,0.219-9.806,4.044c-1.591,3.824,0.22,8.215,4.044,9.806l16.41,6.827l-17.018,8.941
	c-3.667,1.927-5.078,6.462-3.151,10.128c1.342,2.554,3.948,4.014,6.646,4.014c1.176,0,2.369-0.277,3.481-0.862l28.038-14.733
	l25.139,10.458c-0.764,3.894-1.174,7.914-1.174,12.031c0,6.88,1.134,13.491,3.197,19.677c-19.09,16.529-31.166,40.942-31.166,68.177
	c0,49.786,40.357,90.145,90.145,90.145c49.787,0,90.145-40.358,90.145-90.145c0-27.234-12.076-51.647-31.166-68.177
	c2.063-6.186,3.197-12.797,3.197-19.677c0-4.084-0.405-8.073-1.157-11.938l25.364-10.552l28.038,14.733
	c1.113,0.585,2.306,0.862,3.482,0.862c2.697-0.001,5.305-1.46,6.646-4.014C278.506,111.731,277.095,107.196,273.428,105.27z
	 M132.318,36.077c0-2.117,1.716-3.834,3.833-3.834c2.117,0,3.834,1.717,3.834,3.834c0,2.117-1.717,3.833-3.834,3.833
	C134.034,39.91,132.318,38.194,132.318,36.077z M151.699,228.91c-4.051,0-7.334-3.283-7.334-7.334c0-4.05,3.283-7.333,7.334-7.333
	c4.05,0,7.333,3.283,7.333,7.333C159.032,225.627,155.749,228.91,151.699,228.91z M151.699,175.91c-4.051,0-7.334-3.283-7.334-7.334
	c0-4.05,3.283-7.333,7.334-7.333c4.05,0,7.333,3.283,7.333,7.333C159.032,172.627,155.749,175.91,151.699,175.91z M151.699,123.91
	c-4.051,0-7.334-3.283-7.334-7.334c0-4.05,3.283-7.333,7.334-7.333c4.05,0,7.333,3.283,7.333,7.333
	C159.032,120.627,155.749,123.91,151.699,123.91z M165.298,53.945l-10.557,22.64c-0.521,1.119-1.644,1.834-2.878,1.834
	c-1.234,0-2.357-0.715-2.878-1.834l-10.475-22.467c-0.395-0.847-0.433-1.815-0.106-2.689c0.327-0.874,0.991-1.581,1.844-1.961
	c7.455-3.323,15.975-3.301,23.412,0.062c0.807,0.364,1.434,1.036,1.741,1.866C165.709,52.226,165.671,53.144,165.298,53.945z
	 M168.151,39.91c-2.117,0-3.833-1.716-3.833-3.833c0-2.117,1.716-3.834,3.833-3.834c2.117,0,3.834,1.717,3.834,3.834
	C171.985,38.194,170.269,39.91,168.151,39.91z"/>
</svg>